<svg width="335" height="335" viewBox="0 0 335 335" fill="none" xmlns="http://www.w3.org/2000/svg">
<path d="M166.498 167.5V168.971L167.866 168.43L321.741 107.505L322.671 107.137L322.303 106.207C297.162 42.7071 235.793 1 167.498 1H166.498V2V167.5Z" fill="#4E00FF" stroke="#101D3F" stroke-width="2"/>
<path d="M167.129 166.57L167.56 168.498L332.731 158.106L333.729 158.043L333.667 157.045C332.57 139.608 328.735 122.452 322.303 106.207L321.935 105.277L321.005 105.645L167.129 166.57Z" fill="#FF850B" stroke="#101D3F" stroke-width="2"/>
<path d="M167.434 166.502L166.709 166.548L166.528 167.252L125.371 327.552L125.122 328.52L126.091 328.769C143.013 333.114 160.514 334.769 177.951 333.672C269.724 327.898 339.44 248.82 333.666 157.046L333.603 156.048L332.605 156.11L167.434 166.502Z" fill="#1DBEE1" stroke="#101D3F" stroke-width="2"/>
<path d="M168.468 167.748L169.233 164.767L166.862 166.729L39.3435 272.223L38.573 272.86L39.2104 273.631C61.6228 300.723 92.0366 320.024 126.093 328.768L127.061 329.017L127.31 328.049L168.468 167.748Z" fill="#133D81" stroke="#101D3F" stroke-width="2"/>
<path d="M168.137 168.271L169.649 167.02L167.748 166.532L7.45 125.374L6.48141 125.125L6.23272 126.093C-7.02162 177.716 5.23829 232.565 39.2109 273.631L39.8483 274.402L40.6188 273.764L168.137 168.271Z" fill="#FF0000" stroke="#101D3F" stroke-width="2"/>
<path d="M167.251 168.469L168.087 166.691L34.1968 69.4127L33.3877 68.8249L32.8 69.6339C20.4654 86.6112 11.4513 105.767 6.23259 126.093L5.9839 127.062L6.95248 127.31L167.251 168.469Z" fill="#663090" stroke="#101D3F" stroke-width="2"/>
<path d="M166.909 168.309L168.497 169.462V167.5V2V1H167.497C114.2 1 64.1244 26.5151 32.7974 69.6336L32.2097 70.4427L33.0187 71.0304L166.909 168.309Z" fill="#0096F2" stroke="#101D3F" stroke-width="2"/>
<path opacity="0.3" d="M75.7495 296V281.388H75.6763L71.123 284.586V281.62L75.7251 278.385H78.8379V296H75.7495ZM89.6167 296.354C87.4683 296.354 85.7796 295.536 84.5508 293.9C83.3301 292.257 82.7197 290.014 82.7197 287.174C82.7197 284.35 83.3341 282.121 84.563 280.485C85.7918 278.849 87.4764 278.031 89.6167 278.031C91.757 278.031 93.4375 278.849 94.6582 280.485C95.8789 282.112 96.4893 284.338 96.4893 287.162C96.4893 289.994 95.8789 292.236 94.6582 293.888C93.4375 295.532 91.757 296.354 89.6167 296.354ZM89.6167 293.778C90.7804 293.778 91.6838 293.196 92.3267 292.033C92.9777 290.869 93.3032 289.25 93.3032 287.174C93.3032 285.115 92.9777 283.508 92.3267 282.353C91.6756 281.189 90.7723 280.607 89.6167 280.607C88.4611 280.607 87.5496 281.189 86.8823 282.353C86.2231 283.516 85.8936 285.119 85.8936 287.162C85.8936 289.237 86.2191 290.861 86.8701 292.033C87.5293 293.196 88.4448 293.778 89.6167 293.778ZM104.851 279.313C105.559 280.119 105.913 281.209 105.913 282.584C105.913 283.96 105.559 285.054 104.851 285.868C104.143 286.682 103.195 287.089 102.007 287.089C100.819 287.089 99.8706 286.682 99.1626 285.868C98.4627 285.054 98.1128 283.96 98.1128 282.584C98.1128 281.209 98.4627 280.119 99.1626 279.313C99.8706 278.499 100.819 278.092 102.007 278.092C103.195 278.092 104.143 278.499 104.851 279.313ZM102.007 285.172C102.463 285.172 102.817 284.944 103.069 284.489C103.329 284.025 103.459 283.39 103.459 282.584C103.459 281.771 103.329 281.136 103.069 280.68C102.817 280.216 102.463 279.984 102.007 279.984C101.559 279.984 101.205 280.216 100.945 280.68C100.693 281.136 100.566 281.771 100.566 282.584C100.566 283.39 100.693 284.025 100.945 284.489C101.205 284.944 101.559 285.172 102.007 285.172ZM102.251 296H99.5898L106.414 286.662L112.468 278.385H115.105L108.464 287.479L102.251 296ZM115.532 288.444C116.24 289.258 116.594 290.352 116.594 291.728C116.594 293.103 116.24 294.197 115.532 295.011C114.824 295.817 113.876 296.22 112.688 296.22C111.5 296.22 110.552 295.817 109.844 295.011C109.144 294.197 108.794 293.103 108.794 291.728C108.794 290.352 109.144 289.258 109.844 288.444C110.552 287.63 111.5 287.223 112.688 287.223C113.876 287.223 114.824 287.63 115.532 288.444ZM111.626 293.62C111.886 294.083 112.24 294.315 112.688 294.315C113.136 294.315 113.49 294.083 113.75 293.62C114.01 293.156 114.141 292.521 114.141 291.715C114.141 290.91 114.01 290.275 113.75 289.811C113.49 289.347 113.136 289.115 112.688 289.115C112.24 289.115 111.886 289.347 111.626 289.811C111.374 290.275 111.248 290.91 111.248 291.715C111.248 292.521 111.374 293.156 111.626 293.62Z" fill="black"/>
<path opacity="0.3" d="M291.825 145.354C290.01 145.354 288.504 144.862 287.308 143.877C286.112 142.884 285.481 141.606 285.416 140.044H288.37C288.468 140.858 288.838 141.521 289.481 142.034C290.132 142.546 290.921 142.803 291.849 142.803C292.899 142.803 293.749 142.473 294.4 141.814C295.06 141.155 295.389 140.304 295.389 139.263C295.389 138.205 295.06 137.342 294.4 136.675C293.749 135.999 292.907 135.662 291.874 135.662C291.157 135.662 290.502 135.816 289.908 136.125C289.322 136.435 288.867 136.866 288.541 137.419H285.685L286.6 127.385H297.391V129.961H289.09L288.639 135.112H288.712C289.078 134.543 289.607 134.095 290.299 133.77C290.991 133.436 291.768 133.269 292.63 133.269C294.315 133.269 295.702 133.826 296.793 134.941C297.883 136.048 298.429 137.46 298.429 139.177C298.429 141.008 297.814 142.498 296.585 143.645C295.365 144.784 293.778 145.354 291.825 145.354ZM306.571 128.313C307.279 129.119 307.633 130.209 307.633 131.584C307.633 132.96 307.279 134.054 306.571 134.868C305.863 135.682 304.915 136.089 303.727 136.089C302.538 136.089 301.59 135.682 300.882 134.868C300.182 134.054 299.833 132.96 299.833 131.584C299.833 130.209 300.182 129.119 300.882 128.313C301.59 127.499 302.538 127.092 303.727 127.092C304.915 127.092 305.863 127.499 306.571 128.313ZM303.727 134.172C304.182 134.172 304.536 133.944 304.789 133.489C305.049 133.025 305.179 132.39 305.179 131.584C305.179 130.771 305.049 130.136 304.789 129.68C304.536 129.216 304.182 128.984 303.727 128.984C303.279 128.984 302.925 129.216 302.665 129.68C302.412 130.136 302.286 130.771 302.286 131.584C302.286 132.39 302.412 133.025 302.665 133.489C302.925 133.944 303.279 134.172 303.727 134.172ZM303.971 145H301.31L308.133 135.662L314.188 127.385H316.825L310.184 136.479L303.971 145ZM317.252 137.444C317.96 138.258 318.314 139.352 318.314 140.728C318.314 142.103 317.96 143.197 317.252 144.011C316.544 144.817 315.596 145.22 314.408 145.22C313.22 145.22 312.271 144.817 311.563 144.011C310.864 143.197 310.514 142.103 310.514 140.728C310.514 139.352 310.864 138.258 311.563 137.444C312.271 136.63 313.22 136.223 314.408 136.223C315.596 136.223 316.544 136.63 317.252 137.444ZM313.346 142.62C313.606 143.083 313.96 143.315 314.408 143.315C314.855 143.315 315.209 143.083 315.47 142.62C315.73 142.156 315.86 141.521 315.86 140.715C315.86 139.91 315.73 139.275 315.47 138.811C315.209 138.347 314.855 138.115 314.408 138.115C313.96 138.115 313.606 138.347 313.346 138.811C313.093 139.275 312.967 139.91 312.967 140.715C312.967 141.521 313.093 142.156 313.346 142.62Z" fill="black"/>
<path opacity="0.3" d="M27.1421 112.366C25.8563 112.366 24.7088 112.065 23.6997 111.463C22.6987 110.861 21.9012 109.994 21.3071 108.863C20.4689 107.406 20.0498 105.583 20.0498 103.394C20.0498 100.464 20.6886 98.1694 21.9663 96.5093C23.244 94.8491 25.0018 94.019 27.2397 94.019C28.8511 94.019 30.2305 94.4585 31.3779 95.3374C32.5254 96.2082 33.2293 97.3556 33.4897 98.7798H30.3647C30.1613 98.1125 29.7747 97.5794 29.2051 97.1807C28.6354 96.7819 27.9722 96.5825 27.2153 96.5825C25.897 96.5825 24.8716 97.1685 24.1392 98.3403C23.4067 99.5122 23.0446 101.156 23.0527 103.272H23.1138C23.4881 102.401 24.1025 101.705 24.957 101.185C25.8115 100.664 26.7881 100.403 27.8867 100.403C29.5632 100.403 30.9548 100.957 32.0615 102.063C33.1683 103.162 33.7217 104.546 33.7217 106.214C33.7217 108.004 33.1032 109.477 31.8662 110.633C30.6292 111.788 29.0545 112.366 27.1421 112.366ZM27.1177 109.791C28.0942 109.791 28.9202 109.453 29.5957 108.777C30.2793 108.102 30.6211 107.28 30.6211 106.312C30.6211 105.319 30.2915 104.497 29.6323 103.846C28.9813 103.195 28.1512 102.869 27.1421 102.869C26.133 102.869 25.2907 103.195 24.6152 103.846C23.9479 104.489 23.6143 105.298 23.6143 106.275C23.6143 107.26 23.952 108.094 24.6274 108.777C25.3029 109.453 26.133 109.791 27.1177 109.791ZM41.9858 95.313C42.6938 96.1187 43.0479 97.2091 43.0479 98.5845C43.0479 99.9598 42.6938 101.054 41.9858 101.868C41.2778 102.682 40.3298 103.089 39.1416 103.089C37.9535 103.089 37.0054 102.682 36.2974 101.868C35.5975 101.054 35.2476 99.9598 35.2476 98.5845C35.2476 97.2091 35.5975 96.1187 36.2974 95.313C37.0054 94.4992 37.9535 94.0923 39.1416 94.0923C40.3298 94.0923 41.2778 94.4992 41.9858 95.313ZM39.1416 101.172C39.5973 101.172 39.9513 100.944 40.2036 100.489C40.464 100.025 40.5942 99.3901 40.5942 98.5845C40.5942 97.7707 40.464 97.1359 40.2036 96.6802C39.9513 96.2163 39.5973 95.9844 39.1416 95.9844C38.694 95.9844 38.34 96.2163 38.0796 96.6802C37.8273 97.1359 37.7012 97.7707 37.7012 98.5845C37.7012 99.3901 37.8273 100.025 38.0796 100.489C38.34 100.944 38.694 101.172 39.1416 101.172ZM39.3857 112H36.7246L43.5483 102.662L49.603 94.3853H52.2397L45.5991 103.479L39.3857 112ZM52.667 104.444C53.375 105.258 53.729 106.352 53.729 107.728C53.729 109.103 53.375 110.197 52.667 111.011C51.959 111.817 51.0109 112.22 49.8228 112.22C48.6346 112.22 47.6865 111.817 46.9785 111.011C46.2786 110.197 45.9287 109.103 45.9287 107.728C45.9287 106.352 46.2786 105.258 46.9785 104.444C47.6865 103.63 48.6346 103.223 49.8228 103.223C51.0109 103.223 51.959 103.63 52.667 104.444ZM48.7607 109.62C49.0212 110.083 49.3752 110.315 49.8228 110.315C50.2703 110.315 50.6243 110.083 50.8848 109.62C51.1452 109.156 51.2754 108.521 51.2754 107.715C51.2754 106.91 51.1452 106.275 50.8848 105.811C50.6243 105.347 50.2703 105.115 49.8228 105.115C49.3752 105.115 49.0212 105.347 48.7607 105.811C48.5085 106.275 48.3823 106.91 48.3823 107.715C48.3823 108.521 48.5085 109.156 48.7607 109.62Z" fill="black"/>
<path opacity="0.3" d="M230.347 279.151V276.783H232.471C233.374 276.783 234.106 276.535 234.668 276.038C235.229 275.534 235.51 274.887 235.51 274.097C235.51 273.316 235.242 272.693 234.705 272.229C234.176 271.766 233.427 271.534 232.458 271.534C231.555 271.534 230.819 271.782 230.249 272.278C229.679 272.767 229.362 273.422 229.297 274.244H226.367C226.457 272.657 227.063 271.391 228.186 270.447C229.317 269.503 230.79 269.031 232.605 269.031C234.347 269.031 235.771 269.463 236.877 270.325C237.984 271.188 238.538 272.303 238.538 273.67C238.538 274.752 238.204 275.668 237.537 276.417C236.877 277.157 235.999 277.621 234.9 277.808V277.881C236.226 277.979 237.28 278.41 238.062 279.175C238.851 279.932 239.246 280.921 239.246 282.142C239.246 283.688 238.615 284.945 237.354 285.914C236.1 286.874 234.505 287.354 232.568 287.354C230.648 287.354 229.097 286.874 227.917 285.914C226.737 284.945 226.107 283.672 226.025 282.093H229.028C229.102 282.907 229.456 283.558 230.09 284.046C230.725 284.534 231.559 284.778 232.593 284.778C233.61 284.778 234.44 284.522 235.083 284.009C235.726 283.497 236.047 282.833 236.047 282.02C236.047 281.132 235.73 280.433 235.095 279.92C234.469 279.407 233.61 279.151 232.52 279.151H230.347ZM248.303 287.354C246.155 287.354 244.466 286.536 243.237 284.9C242.017 283.257 241.406 281.014 241.406 278.174C241.406 275.35 242.021 273.121 243.25 271.485C244.478 269.849 246.163 269.031 248.303 269.031C250.444 269.031 252.124 269.849 253.345 271.485C254.565 273.112 255.176 275.338 255.176 278.162C255.176 280.994 254.565 283.236 253.345 284.888C252.124 286.532 250.444 287.354 248.303 287.354ZM248.303 284.778C249.467 284.778 250.37 284.196 251.013 283.033C251.664 281.869 251.99 280.25 251.99 278.174C251.99 276.115 251.664 274.508 251.013 273.353C250.362 272.189 249.459 271.607 248.303 271.607C247.148 271.607 246.236 272.189 245.569 273.353C244.91 274.516 244.58 276.119 244.58 278.162C244.58 280.237 244.906 281.861 245.557 283.033C246.216 284.196 247.131 284.778 248.303 284.778ZM263.538 270.313C264.246 271.119 264.6 272.209 264.6 273.584C264.6 274.96 264.246 276.054 263.538 276.868C262.83 277.682 261.882 278.089 260.693 278.089C259.505 278.089 258.557 277.682 257.849 276.868C257.149 276.054 256.799 274.96 256.799 273.584C256.799 272.209 257.149 271.119 257.849 270.313C258.557 269.499 259.505 269.092 260.693 269.092C261.882 269.092 262.83 269.499 263.538 270.313ZM260.693 276.172C261.149 276.172 261.503 275.944 261.755 275.489C262.016 275.025 262.146 274.39 262.146 273.584C262.146 272.771 262.016 272.136 261.755 271.68C261.503 271.216 261.149 270.984 260.693 270.984C260.246 270.984 259.892 271.216 259.631 271.68C259.379 272.136 259.253 272.771 259.253 273.584C259.253 274.39 259.379 275.025 259.631 275.489C259.892 275.944 260.246 276.172 260.693 276.172ZM260.938 287H258.276L265.1 277.662L271.155 269.385H273.792L267.151 278.479L260.938 287ZM274.219 279.444C274.927 280.258 275.281 281.352 275.281 282.728C275.281 284.103 274.927 285.197 274.219 286.011C273.511 286.817 272.563 287.22 271.375 287.22C270.186 287.22 269.238 286.817 268.53 286.011C267.83 285.197 267.48 284.103 267.48 282.728C267.48 281.352 267.83 280.258 268.53 279.444C269.238 278.63 270.186 278.223 271.375 278.223C272.563 278.223 273.511 278.63 274.219 279.444ZM270.312 284.62C270.573 285.083 270.927 285.315 271.375 285.315C271.822 285.315 272.176 285.083 272.437 284.62C272.697 284.156 272.827 283.521 272.827 282.715C272.827 281.91 272.697 281.275 272.437 280.811C272.176 280.347 271.822 280.115 271.375 280.115C270.927 280.115 270.573 280.347 270.312 280.811C270.06 281.275 269.934 281.91 269.934 282.715C269.934 283.521 270.06 284.156 270.312 284.62Z" fill="black"/>
<path opacity="0.3" d="M235.75 70V55.3882H235.676L231.123 58.5864V55.6201L235.725 52.3853H238.838V70H235.75ZM249.08 70.354C247.46 70.354 246.073 69.9146 244.917 69.0356C243.77 68.1567 243.07 67.0093 242.817 65.5933H245.942C246.138 66.2606 246.524 66.7977 247.102 67.2046C247.688 67.6034 248.363 67.8027 249.128 67.8027C250.439 67.8027 251.456 67.2168 252.18 66.0449C252.913 64.8649 253.267 63.217 253.242 61.1011H253.218H253.206H253.193C252.843 61.9718 252.241 62.6717 251.387 63.2007C250.54 63.7215 249.552 63.9819 248.42 63.9819C246.744 63.9819 245.348 63.4285 244.233 62.3218C243.127 61.215 242.573 59.8275 242.573 58.1592C242.573 56.377 243.192 54.908 244.429 53.7524C245.674 52.5968 247.249 52.019 249.153 52.019C250.447 52.019 251.598 52.3201 252.607 52.9224C253.625 53.5246 254.426 54.3872 255.012 55.5103C255.85 56.967 256.27 58.7939 256.27 60.9912C256.27 63.929 255.635 66.224 254.365 67.876C253.096 69.528 251.334 70.354 249.08 70.354ZM249.165 61.5161C250.174 61.5161 251.016 61.1906 251.692 60.5396C252.367 59.8885 252.705 59.0788 252.705 58.1104C252.705 57.1257 252.363 56.2956 251.68 55.6201C251.004 54.9447 250.174 54.6069 249.189 54.6069C248.205 54.6069 247.371 54.9406 246.687 55.6079C246.012 56.2752 245.674 57.0931 245.674 58.0615C245.674 59.0544 246.003 59.8804 246.663 60.5396C247.33 61.1906 248.164 61.5161 249.165 61.5161ZM264.631 53.313C265.339 54.1187 265.693 55.2091 265.693 56.5845C265.693 57.9598 265.339 59.0544 264.631 59.8682C263.923 60.682 262.975 61.0889 261.787 61.0889C260.599 61.0889 259.651 60.682 258.943 59.8682C258.243 59.0544 257.893 57.9598 257.893 56.5845C257.893 55.2091 258.243 54.1187 258.943 53.313C259.651 52.4992 260.599 52.0923 261.787 52.0923C262.975 52.0923 263.923 52.4992 264.631 53.313ZM261.787 59.1724C262.243 59.1724 262.597 58.9445 262.849 58.4888C263.11 58.0249 263.24 57.3901 263.24 56.5845C263.24 55.7707 263.11 55.1359 262.849 54.6802C262.597 54.2163 262.243 53.9844 261.787 53.9844C261.34 53.9844 260.986 54.2163 260.725 54.6802C260.473 55.1359 260.347 55.7707 260.347 56.5845C260.347 57.3901 260.473 58.0249 260.725 58.4888C260.986 58.9445 261.34 59.1724 261.787 59.1724ZM262.031 70H259.37L266.194 60.6616L272.249 52.3853H274.885L268.245 61.4795L262.031 70ZM275.312 62.4438C276.021 63.2576 276.375 64.3522 276.375 65.7275C276.375 67.1029 276.021 68.1974 275.312 69.0112C274.604 69.8169 273.656 70.2197 272.468 70.2197C271.28 70.2197 270.332 69.8169 269.624 69.0112C268.924 68.1974 268.574 67.1029 268.574 65.7275C268.574 64.3522 268.924 63.2576 269.624 62.4438C270.332 61.63 271.28 61.2231 272.468 61.2231C273.656 61.2231 274.604 61.63 275.312 62.4438ZM271.406 67.6196C271.667 68.0835 272.021 68.3154 272.468 68.3154C272.916 68.3154 273.27 68.0835 273.53 67.6196C273.791 67.1558 273.921 66.521 273.921 65.7153C273.921 64.9097 273.791 64.2749 273.53 63.811C273.27 63.3472 272.916 63.1152 272.468 63.1152C272.021 63.1152 271.667 63.3472 271.406 63.811C271.154 64.2749 271.028 64.9097 271.028 65.7153C271.028 66.521 271.154 67.1558 271.406 67.6196Z" fill="black"/>
<path opacity="0.3" d="M11.7495 207V192.388H11.6763L7.12305 195.586V192.62L11.7251 189.385H14.8379V207H11.7495ZM25.4946 207.354C23.6799 207.354 22.1743 206.862 20.978 205.877C19.7817 204.884 19.151 203.606 19.0859 202.044H22.04C22.1377 202.858 22.508 203.521 23.1509 204.034C23.8019 204.546 24.5913 204.803 25.519 204.803C26.5688 204.803 27.4193 204.473 28.0703 203.814C28.7295 203.155 29.0591 202.304 29.0591 201.263C29.0591 200.205 28.7295 199.342 28.0703 198.675C27.4193 197.999 26.577 197.662 25.5435 197.662C24.8273 197.662 24.1722 197.816 23.5781 198.125C22.9922 198.435 22.5365 198.866 22.2109 199.419H19.3545L20.27 189.385H31.061V191.961H22.7603L22.3086 197.112H22.3818C22.748 196.543 23.277 196.095 23.9688 195.77C24.6605 195.436 25.4377 195.269 26.3003 195.269C27.9849 195.269 29.3724 195.826 30.4629 196.941C31.5534 198.048 32.0986 199.46 32.0986 201.177C32.0986 203.008 31.4842 204.498 30.2554 205.645C29.0347 206.784 27.4478 207.354 25.4946 207.354ZM40.2407 190.313C40.9487 191.119 41.3027 192.209 41.3027 193.584C41.3027 194.96 40.9487 196.054 40.2407 196.868C39.5327 197.682 38.5846 198.089 37.3965 198.089C36.2083 198.089 35.2603 197.682 34.5522 196.868C33.8524 196.054 33.5024 194.96 33.5024 193.584C33.5024 192.209 33.8524 191.119 34.5522 190.313C35.2603 189.499 36.2083 189.092 37.3965 189.092C38.5846 189.092 39.5327 189.499 40.2407 190.313ZM37.3965 196.172C37.8522 196.172 38.2062 195.944 38.4585 195.489C38.7189 195.025 38.8491 194.39 38.8491 193.584C38.8491 192.771 38.7189 192.136 38.4585 191.68C38.2062 191.216 37.8522 190.984 37.3965 190.984C36.9489 190.984 36.5949 191.216 36.3345 191.68C36.0822 192.136 35.9561 192.771 35.9561 193.584C35.9561 194.39 36.0822 195.025 36.3345 195.489C36.5949 195.944 36.9489 196.172 37.3965 196.172ZM37.6406 207H34.9795L41.8032 197.662L47.8579 189.385H50.4946L43.854 198.479L37.6406 207ZM50.9219 199.444C51.6299 200.258 51.9839 201.352 51.9839 202.728C51.9839 204.103 51.6299 205.197 50.9219 206.011C50.2139 206.817 49.2658 207.22 48.0776 207.22C46.8895 207.22 45.9414 206.817 45.2334 206.011C44.5335 205.197 44.1836 204.103 44.1836 202.728C44.1836 201.352 44.5335 200.258 45.2334 199.444C45.9414 198.63 46.8895 198.223 48.0776 198.223C49.2658 198.223 50.2139 198.63 50.9219 199.444ZM47.0156 204.62C47.276 205.083 47.63 205.315 48.0776 205.315C48.5252 205.315 48.8792 205.083 49.1396 204.62C49.4001 204.156 49.5303 203.521 49.5303 202.715C49.5303 201.91 49.4001 201.275 49.1396 200.811C48.8792 200.347 48.5252 200.115 48.0776 200.115C47.63 200.115 47.276 200.347 47.0156 200.811C46.7633 201.275 46.6372 201.91 46.6372 202.715C46.6372 203.521 46.7633 204.156 47.0156 204.62Z" fill="black"/>
<path opacity="0.3" d="M85.7495 52V37.3882H85.6763L81.123 40.5864V37.6201L85.7251 34.3853H88.8379V52H85.7495ZM99.4946 52.354C97.6799 52.354 96.1743 51.8617 94.978 50.877C93.7817 49.8841 93.151 48.6064 93.0859 47.0439H96.04C96.1377 47.8577 96.508 48.521 97.1509 49.0337C97.8019 49.5464 98.5913 49.8027 99.519 49.8027C100.569 49.8027 101.419 49.4731 102.07 48.814C102.729 48.1548 103.059 47.3044 103.059 46.2627C103.059 45.2048 102.729 44.3421 102.07 43.6748C101.419 42.9993 100.577 42.6616 99.5435 42.6616C98.8273 42.6616 98.1722 42.8162 97.5781 43.1255C96.9922 43.4347 96.5365 43.866 96.2109 44.4194H93.3545L94.27 34.3853H105.061V36.9609H96.7603L96.3086 42.1123H96.3818C96.748 41.5426 97.277 41.0951 97.9688 40.7695C98.6605 40.4359 99.4377 40.269 100.3 40.269C101.985 40.269 103.372 40.8265 104.463 41.9414C105.553 43.0482 106.099 44.4601 106.099 46.1772C106.099 48.0083 105.484 49.4976 104.255 50.645C103.035 51.7843 101.448 52.354 99.4946 52.354ZM114.241 35.313C114.949 36.1187 115.303 37.2091 115.303 38.5845C115.303 39.9598 114.949 41.0544 114.241 41.8682C113.533 42.682 112.585 43.0889 111.396 43.0889C110.208 43.0889 109.26 42.682 108.552 41.8682C107.852 41.0544 107.502 39.9598 107.502 38.5845C107.502 37.2091 107.852 36.1187 108.552 35.313C109.26 34.4992 110.208 34.0923 111.396 34.0923C112.585 34.0923 113.533 34.4992 114.241 35.313ZM111.396 41.1724C111.852 41.1724 112.206 40.9445 112.458 40.4888C112.719 40.0249 112.849 39.3901 112.849 38.5845C112.849 37.7707 112.719 37.1359 112.458 36.6802C112.206 36.2163 111.852 35.9844 111.396 35.9844C110.949 35.9844 110.595 36.2163 110.334 36.6802C110.082 37.1359 109.956 37.7707 109.956 38.5845C109.956 39.3901 110.082 40.0249 110.334 40.4888C110.595 40.9445 110.949 41.1724 111.396 41.1724ZM111.641 52H108.979L115.803 42.6616L121.858 34.3853H124.495L117.854 43.4795L111.641 52ZM124.922 44.4438C125.63 45.2576 125.984 46.3522 125.984 47.7275C125.984 49.1029 125.63 50.1974 124.922 51.0112C124.214 51.8169 123.266 52.2197 122.078 52.2197C120.889 52.2197 119.941 51.8169 119.233 51.0112C118.534 50.1974 118.184 49.1029 118.184 47.7275C118.184 46.3522 118.534 45.2576 119.233 44.4438C119.941 43.63 120.889 43.2231 122.078 43.2231C123.266 43.2231 124.214 43.63 124.922 44.4438ZM121.016 49.6196C121.276 50.0835 121.63 50.3154 122.078 50.3154C122.525 50.3154 122.879 50.0835 123.14 49.6196C123.4 49.1558 123.53 48.521 123.53 47.7153C123.53 46.9097 123.4 46.2749 123.14 45.811C122.879 45.3472 122.525 45.1152 122.078 45.1152C121.63 45.1152 121.276 45.3472 121.016 45.811C120.763 46.2749 120.637 46.9097 120.637 47.7153C120.637 48.521 120.763 49.1558 121.016 49.6196Z" fill="black"/>
<circle cx="168" cy="168" r="110" fill="#101D3F"/>
</svg>
