<svg width="556" height="556" viewBox="0 0 556 556" fill="none" xmlns="http://www.w3.org/2000/svg">
<path d="M276.996 278V279.471L278.364 278.929L534.979 177.327L535.908 176.959L535.54 176.029C493.714 70.3865 391.616 1 277.996 1H276.996V2V278Z" fill="#4E00FF" stroke="#101D3F" stroke-width="2"/>
<path d="M277.628 277.069L278.059 278.997L553.51 261.667L554.508 261.604L554.445 260.606C552.62 231.596 546.241 203.055 535.54 176.029L535.172 175.099L534.242 175.467L277.628 277.069Z" fill="#FF850B" stroke="#101D3F" stroke-width="2"/>
<path d="M277.932 277.003L277.207 277.048L277.026 277.752L208.389 545.08L208.14 546.049L209.109 546.298C237.262 553.526 266.378 556.279 295.388 554.454C448.066 544.848 564.05 413.288 554.444 260.608L554.381 259.61L553.383 259.672L277.932 277.003Z" fill="#1DBEE1" stroke="#101D3F" stroke-width="2"/>
<path d="M278.967 278.248L279.732 275.267L277.361 277.229L64.7024 453.158L63.9319 453.795L64.5693 454.566C101.856 499.638 152.454 531.749 209.112 546.297L210.081 546.545L210.33 545.577L278.967 278.248Z" fill="#133D81" stroke="#101D3F" stroke-width="2"/>
<path d="M278.636 278.771L280.149 277.52L278.248 277.032L10.9228 208.394L9.95419 208.145L9.7055 209.114C-12.3453 294.997 8.05109 386.246 64.57 454.567L65.2075 455.337L65.978 454.7L278.636 278.771Z" fill="#FF0000" stroke="#101D3F" stroke-width="2"/>
<path d="M277.75 278.969L278.587 277.191L55.3012 114.962L54.4922 114.375L53.9044 115.184C33.3838 143.428 18.3874 175.298 9.70524 209.113L9.45656 210.082L10.4251 210.33L277.75 278.969Z" fill="#663090" stroke="#101D3F" stroke-width="2"/>
<path d="M277.407 278.809L278.994 279.962V278V2V1H277.994C189.327 1 106.018 43.4486 53.9 115.183L53.3122 115.992L54.1212 116.58L277.407 278.809Z" fill="#0096F2" stroke="#101D3F" stroke-width="2"/>
<path opacity="0.3" d="M125.75 501V486.388H125.676L121.123 489.586V486.62L125.725 483.385H128.838V501H125.75ZM139.617 501.354C137.468 501.354 135.78 500.536 134.551 498.9C133.33 497.257 132.72 495.014 132.72 492.174C132.72 489.35 133.334 487.121 134.563 485.485C135.792 483.849 137.476 483.031 139.617 483.031C141.757 483.031 143.438 483.849 144.658 485.485C145.879 487.112 146.489 489.338 146.489 492.162C146.489 494.994 145.879 497.236 144.658 498.888C143.438 500.532 141.757 501.354 139.617 501.354ZM139.617 498.778C140.78 498.778 141.684 498.196 142.327 497.033C142.978 495.869 143.303 494.25 143.303 492.174C143.303 490.115 142.978 488.508 142.327 487.353C141.676 486.189 140.772 485.607 139.617 485.607C138.461 485.607 137.55 486.189 136.882 487.353C136.223 488.516 135.894 490.119 135.894 492.162C135.894 494.237 136.219 495.861 136.87 497.033C137.529 498.196 138.445 498.778 139.617 498.778ZM154.851 484.313C155.559 485.119 155.913 486.209 155.913 487.584C155.913 488.96 155.559 490.054 154.851 490.868C154.143 491.682 153.195 492.089 152.007 492.089C150.819 492.089 149.871 491.682 149.163 490.868C148.463 490.054 148.113 488.96 148.113 487.584C148.113 486.209 148.463 485.119 149.163 484.313C149.871 483.499 150.819 483.092 152.007 483.092C153.195 483.092 154.143 483.499 154.851 484.313ZM152.007 490.172C152.463 490.172 152.817 489.944 153.069 489.489C153.329 489.025 153.459 488.39 153.459 487.584C153.459 486.771 153.329 486.136 153.069 485.68C152.817 485.216 152.463 484.984 152.007 484.984C151.559 484.984 151.205 485.216 150.945 485.68C150.693 486.136 150.566 486.771 150.566 487.584C150.566 488.39 150.693 489.025 150.945 489.489C151.205 489.944 151.559 490.172 152.007 490.172ZM152.251 501H149.59L156.414 491.662L162.468 483.385H165.105L158.464 492.479L152.251 501ZM165.532 493.444C166.24 494.258 166.594 495.352 166.594 496.728C166.594 498.103 166.24 499.197 165.532 500.011C164.824 500.817 163.876 501.22 162.688 501.22C161.5 501.22 160.552 500.817 159.844 500.011C159.144 499.197 158.794 498.103 158.794 496.728C158.794 495.352 159.144 494.258 159.844 493.444C160.552 492.63 161.5 492.223 162.688 492.223C163.876 492.223 164.824 492.63 165.532 493.444ZM161.626 498.62C161.886 499.083 162.24 499.315 162.688 499.315C163.136 499.315 163.49 499.083 163.75 498.62C164.01 498.156 164.141 497.521 164.141 496.715C164.141 495.91 164.01 495.275 163.75 494.811C163.49 494.347 163.136 494.115 162.688 494.115C162.24 494.115 161.886 494.347 161.626 494.811C161.374 495.275 161.248 495.91 161.248 496.715C161.248 497.521 161.374 498.156 161.626 498.62Z" fill="black"/>
<path opacity="0.3" d="M516.825 234.354C515.01 234.354 513.504 233.862 512.308 232.877C511.112 231.884 510.481 230.606 510.416 229.044H513.37C513.468 229.858 513.838 230.521 514.481 231.034C515.132 231.546 515.921 231.803 516.849 231.803C517.899 231.803 518.749 231.473 519.4 230.814C520.06 230.155 520.389 229.304 520.389 228.263C520.389 227.205 520.06 226.342 519.4 225.675C518.749 224.999 517.907 224.662 516.874 224.662C516.157 224.662 515.502 224.816 514.908 225.125C514.322 225.435 513.867 225.866 513.541 226.419H510.685L511.6 216.385H522.391V218.961H514.09L513.639 224.112H513.712C514.078 223.543 514.607 223.095 515.299 222.77C515.991 222.436 516.768 222.269 517.63 222.269C519.315 222.269 520.702 222.826 521.793 223.941C522.883 225.048 523.429 226.46 523.429 228.177C523.429 230.008 522.814 231.498 521.585 232.645C520.365 233.784 518.778 234.354 516.825 234.354ZM531.571 217.313C532.279 218.119 532.633 219.209 532.633 220.584C532.633 221.96 532.279 223.054 531.571 223.868C530.863 224.682 529.915 225.089 528.727 225.089C527.538 225.089 526.59 224.682 525.882 223.868C525.182 223.054 524.833 221.96 524.833 220.584C524.833 219.209 525.182 218.119 525.882 217.313C526.59 216.499 527.538 216.092 528.727 216.092C529.915 216.092 530.863 216.499 531.571 217.313ZM528.727 223.172C529.182 223.172 529.536 222.944 529.789 222.489C530.049 222.025 530.179 221.39 530.179 220.584C530.179 219.771 530.049 219.136 529.789 218.68C529.536 218.216 529.182 217.984 528.727 217.984C528.279 217.984 527.925 218.216 527.665 218.68C527.412 219.136 527.286 219.771 527.286 220.584C527.286 221.39 527.412 222.025 527.665 222.489C527.925 222.944 528.279 223.172 528.727 223.172ZM528.971 234H526.31L533.133 224.662L539.188 216.385H541.825L535.184 225.479L528.971 234ZM542.252 226.444C542.96 227.258 543.314 228.352 543.314 229.728C543.314 231.103 542.96 232.197 542.252 233.011C541.544 233.817 540.596 234.22 539.408 234.22C538.22 234.22 537.271 233.817 536.563 233.011C535.864 232.197 535.514 231.103 535.514 229.728C535.514 228.352 535.864 227.258 536.563 226.444C537.271 225.63 538.22 225.223 539.408 225.223C540.596 225.223 541.544 225.63 542.252 226.444ZM538.346 231.62C538.606 232.083 538.96 232.315 539.408 232.315C539.855 232.315 540.209 232.083 540.47 231.62C540.73 231.156 540.86 230.521 540.86 229.715C540.86 228.91 540.73 228.275 540.47 227.811C540.209 227.347 539.855 227.115 539.408 227.115C538.96 227.115 538.606 227.347 538.346 227.811C538.093 228.275 537.967 228.91 537.967 229.715C537.967 230.521 538.093 231.156 538.346 231.62Z" fill="black"/>
<path opacity="0.3" d="M39.1421 180.366C37.8563 180.366 36.7088 180.065 35.6997 179.463C34.6987 178.861 33.9012 177.994 33.3071 176.863C32.4689 175.406 32.0498 173.583 32.0498 171.394C32.0498 168.464 32.6886 166.169 33.9663 164.509C35.244 162.849 37.0018 162.019 39.2397 162.019C40.8511 162.019 42.2305 162.458 43.3779 163.337C44.5254 164.208 45.2293 165.356 45.4897 166.78H42.3647C42.1613 166.112 41.7747 165.579 41.2051 165.181C40.6354 164.782 39.9722 164.583 39.2153 164.583C37.897 164.583 36.8716 165.168 36.1392 166.34C35.4067 167.512 35.0446 169.156 35.0527 171.272H35.1138C35.4881 170.401 36.1025 169.705 36.957 169.185C37.8115 168.664 38.7881 168.403 39.8867 168.403C41.5632 168.403 42.9548 168.957 44.0615 170.063C45.1683 171.162 45.7217 172.546 45.7217 174.214C45.7217 176.004 45.1032 177.477 43.8662 178.633C42.6292 179.788 41.0545 180.366 39.1421 180.366ZM39.1177 177.791C40.0942 177.791 40.9202 177.453 41.5957 176.777C42.2793 176.102 42.6211 175.28 42.6211 174.312C42.6211 173.319 42.2915 172.497 41.6323 171.846C40.9813 171.195 40.1512 170.869 39.1421 170.869C38.133 170.869 37.2907 171.195 36.6152 171.846C35.9479 172.489 35.6143 173.298 35.6143 174.275C35.6143 175.26 35.952 176.094 36.6274 176.777C37.3029 177.453 38.133 177.791 39.1177 177.791ZM53.9858 163.313C54.6938 164.119 55.0479 165.209 55.0479 166.584C55.0479 167.96 54.6938 169.054 53.9858 169.868C53.2778 170.682 52.3298 171.089 51.1416 171.089C49.9535 171.089 49.0054 170.682 48.2974 169.868C47.5975 169.054 47.2476 167.96 47.2476 166.584C47.2476 165.209 47.5975 164.119 48.2974 163.313C49.0054 162.499 49.9535 162.092 51.1416 162.092C52.3298 162.092 53.2778 162.499 53.9858 163.313ZM51.1416 169.172C51.5973 169.172 51.9513 168.944 52.2036 168.489C52.464 168.025 52.5942 167.39 52.5942 166.584C52.5942 165.771 52.464 165.136 52.2036 164.68C51.9513 164.216 51.5973 163.984 51.1416 163.984C50.694 163.984 50.34 164.216 50.0796 164.68C49.8273 165.136 49.7012 165.771 49.7012 166.584C49.7012 167.39 49.8273 168.025 50.0796 168.489C50.34 168.944 50.694 169.172 51.1416 169.172ZM51.3857 180H48.7246L55.5483 170.662L61.603 162.385H64.2397L57.5991 171.479L51.3857 180ZM64.667 172.444C65.375 173.258 65.729 174.352 65.729 175.728C65.729 177.103 65.375 178.197 64.667 179.011C63.959 179.817 63.0109 180.22 61.8228 180.22C60.6346 180.22 59.6865 179.817 58.9785 179.011C58.2786 178.197 57.9287 177.103 57.9287 175.728C57.9287 174.352 58.2786 173.258 58.9785 172.444C59.6865 171.63 60.6346 171.223 61.8228 171.223C63.0109 171.223 63.959 171.63 64.667 172.444ZM60.7607 177.62C61.0212 178.083 61.3752 178.315 61.8228 178.315C62.2703 178.315 62.6243 178.083 62.8848 177.62C63.1452 177.156 63.2754 176.521 63.2754 175.715C63.2754 174.91 63.1452 174.275 62.8848 173.811C62.6243 173.347 62.2703 173.115 61.8228 173.115C61.3752 173.115 61.0212 173.347 60.7607 173.811C60.5085 174.275 60.3823 174.91 60.3823 175.715C60.3823 176.521 60.5085 177.156 60.7607 177.62Z" fill="black"/>
<path opacity="0.3" d="M428.347 466.151V463.783H430.471C431.374 463.783 432.106 463.535 432.668 463.038C433.229 462.534 433.51 461.887 433.51 461.097C433.51 460.316 433.242 459.693 432.705 459.229C432.176 458.766 431.427 458.534 430.458 458.534C429.555 458.534 428.819 458.782 428.249 459.278C427.679 459.767 427.362 460.422 427.297 461.244H424.367C424.457 459.657 425.063 458.391 426.186 457.447C427.317 456.503 428.79 456.031 430.605 456.031C432.347 456.031 433.771 456.463 434.877 457.325C435.984 458.188 436.538 459.303 436.538 460.67C436.538 461.752 436.204 462.668 435.537 463.417C434.877 464.157 433.999 464.621 432.9 464.808V464.881C434.226 464.979 435.28 465.41 436.062 466.175C436.851 466.932 437.246 467.921 437.246 469.142C437.246 470.688 436.615 471.945 435.354 472.914C434.1 473.874 432.505 474.354 430.568 474.354C428.648 474.354 427.097 473.874 425.917 472.914C424.737 471.945 424.107 470.672 424.025 469.093H427.028C427.102 469.907 427.456 470.558 428.09 471.046C428.725 471.534 429.559 471.778 430.593 471.778C431.61 471.778 432.44 471.522 433.083 471.009C433.726 470.497 434.047 469.833 434.047 469.02C434.047 468.132 433.73 467.433 433.095 466.92C432.469 466.407 431.61 466.151 430.52 466.151H428.347ZM446.303 474.354C444.155 474.354 442.466 473.536 441.237 471.9C440.017 470.257 439.406 468.014 439.406 465.174C439.406 462.35 440.021 460.121 441.25 458.485C442.478 456.849 444.163 456.031 446.303 456.031C448.444 456.031 450.124 456.849 451.345 458.485C452.565 460.112 453.176 462.338 453.176 465.162C453.176 467.994 452.565 470.236 451.345 471.888C450.124 473.532 448.444 474.354 446.303 474.354ZM446.303 471.778C447.467 471.778 448.37 471.196 449.013 470.033C449.664 468.869 449.99 467.25 449.99 465.174C449.99 463.115 449.664 461.508 449.013 460.353C448.362 459.189 447.459 458.607 446.303 458.607C445.148 458.607 444.236 459.189 443.569 460.353C442.91 461.516 442.58 463.119 442.58 465.162C442.58 467.237 442.906 468.861 443.557 470.033C444.216 471.196 445.131 471.778 446.303 471.778ZM461.538 457.313C462.246 458.119 462.6 459.209 462.6 460.584C462.6 461.96 462.246 463.054 461.538 463.868C460.83 464.682 459.882 465.089 458.693 465.089C457.505 465.089 456.557 464.682 455.849 463.868C455.149 463.054 454.799 461.96 454.799 460.584C454.799 459.209 455.149 458.119 455.849 457.313C456.557 456.499 457.505 456.092 458.693 456.092C459.882 456.092 460.83 456.499 461.538 457.313ZM458.693 463.172C459.149 463.172 459.503 462.944 459.755 462.489C460.016 462.025 460.146 461.39 460.146 460.584C460.146 459.771 460.016 459.136 459.755 458.68C459.503 458.216 459.149 457.984 458.693 457.984C458.246 457.984 457.892 458.216 457.631 458.68C457.379 459.136 457.253 459.771 457.253 460.584C457.253 461.39 457.379 462.025 457.631 462.489C457.892 462.944 458.246 463.172 458.693 463.172ZM458.938 474H456.276L463.1 464.662L469.155 456.385H471.792L465.151 465.479L458.938 474ZM472.219 466.444C472.927 467.258 473.281 468.352 473.281 469.728C473.281 471.103 472.927 472.197 472.219 473.011C471.511 473.817 470.563 474.22 469.375 474.22C468.186 474.22 467.238 473.817 466.53 473.011C465.83 472.197 465.48 471.103 465.48 469.728C465.48 468.352 465.83 467.258 466.53 466.444C467.238 465.63 468.186 465.223 469.375 465.223C470.563 465.223 471.511 465.63 472.219 466.444ZM468.312 471.62C468.573 472.083 468.927 472.315 469.375 472.315C469.822 472.315 470.176 472.083 470.437 471.62C470.697 471.156 470.827 470.521 470.827 469.715C470.827 468.91 470.697 468.275 470.437 467.811C470.176 467.347 469.822 467.115 469.375 467.115C468.927 467.115 468.573 467.347 468.312 467.811C468.06 468.275 467.934 468.91 467.934 469.715C467.934 470.521 468.06 471.156 468.312 471.62Z" fill="black"/>
<path opacity="0.3" d="M416.75 89V74.3882H416.676L412.123 77.5864V74.6201L416.725 71.3853H419.838V89H416.75ZM430.08 89.354C428.46 89.354 427.073 88.9146 425.917 88.0356C424.77 87.1567 424.07 86.0093 423.817 84.5933H426.942C427.138 85.2606 427.524 85.7977 428.102 86.2046C428.688 86.6034 429.363 86.8027 430.128 86.8027C431.439 86.8027 432.456 86.2168 433.18 85.0449C433.913 83.8649 434.267 82.217 434.242 80.1011H434.218H434.206H434.193C433.843 80.9718 433.241 81.6717 432.387 82.2007C431.54 82.7215 430.552 82.9819 429.42 82.9819C427.744 82.9819 426.348 82.4285 425.233 81.3218C424.127 80.215 423.573 78.8275 423.573 77.1592C423.573 75.377 424.192 73.908 425.429 72.7524C426.674 71.5968 428.249 71.019 430.153 71.019C431.447 71.019 432.598 71.3201 433.607 71.9224C434.625 72.5246 435.426 73.3872 436.012 74.5103C436.85 75.967 437.27 77.7939 437.27 79.9912C437.27 82.929 436.635 85.224 435.365 86.876C434.096 88.528 432.334 89.354 430.08 89.354ZM430.165 80.5161C431.174 80.5161 432.016 80.1906 432.692 79.5396C433.367 78.8885 433.705 78.0788 433.705 77.1104C433.705 76.1257 433.363 75.2956 432.68 74.6201C432.004 73.9447 431.174 73.6069 430.189 73.6069C429.205 73.6069 428.371 73.9406 427.687 74.6079C427.012 75.2752 426.674 76.0931 426.674 77.0615C426.674 78.0544 427.003 78.8804 427.663 79.5396C428.33 80.1906 429.164 80.5161 430.165 80.5161ZM445.631 72.313C446.339 73.1187 446.693 74.2091 446.693 75.5845C446.693 76.9598 446.339 78.0544 445.631 78.8682C444.923 79.682 443.975 80.0889 442.787 80.0889C441.599 80.0889 440.651 79.682 439.943 78.8682C439.243 78.0544 438.893 76.9598 438.893 75.5845C438.893 74.2091 439.243 73.1187 439.943 72.313C440.651 71.4992 441.599 71.0923 442.787 71.0923C443.975 71.0923 444.923 71.4992 445.631 72.313ZM442.787 78.1724C443.243 78.1724 443.597 77.9445 443.849 77.4888C444.11 77.0249 444.24 76.3901 444.24 75.5845C444.24 74.7707 444.11 74.1359 443.849 73.6802C443.597 73.2163 443.243 72.9844 442.787 72.9844C442.34 72.9844 441.986 73.2163 441.725 73.6802C441.473 74.1359 441.347 74.7707 441.347 75.5845C441.347 76.3901 441.473 77.0249 441.725 77.4888C441.986 77.9445 442.34 78.1724 442.787 78.1724ZM443.031 89H440.37L447.194 79.6616L453.249 71.3853H455.885L449.245 80.4795L443.031 89ZM456.312 81.4438C457.021 82.2576 457.375 83.3522 457.375 84.7275C457.375 86.1029 457.021 87.1974 456.312 88.0112C455.604 88.8169 454.656 89.2197 453.468 89.2197C452.28 89.2197 451.332 88.8169 450.624 88.0112C449.924 87.1974 449.574 86.1029 449.574 84.7275C449.574 83.3522 449.924 82.2576 450.624 81.4438C451.332 80.63 452.28 80.2231 453.468 80.2231C454.656 80.2231 455.604 80.63 456.312 81.4438ZM452.406 86.6196C452.667 87.0835 453.021 87.3154 453.468 87.3154C453.916 87.3154 454.27 87.0835 454.53 86.6196C454.791 86.1558 454.921 85.521 454.921 84.7153C454.921 83.9097 454.791 83.2749 454.53 82.811C454.27 82.3472 453.916 82.1152 453.468 82.1152C453.021 82.1152 452.667 82.3472 452.406 82.811C452.154 83.2749 452.028 83.9097 452.028 84.7153C452.028 85.521 452.154 86.1558 452.406 86.6196Z" fill="black"/>
<path opacity="0.3" d="M14.7495 338V323.388H14.6763L10.123 326.586V323.62L14.7251 320.385H17.8379V338H14.7495ZM28.4946 338.354C26.6799 338.354 25.1743 337.862 23.978 336.877C22.7817 335.884 22.151 334.606 22.0859 333.044H25.04C25.1377 333.858 25.508 334.521 26.1509 335.034C26.8019 335.546 27.5913 335.803 28.519 335.803C29.5688 335.803 30.4193 335.473 31.0703 334.814C31.7295 334.155 32.0591 333.304 32.0591 332.263C32.0591 331.205 31.7295 330.342 31.0703 329.675C30.4193 328.999 29.577 328.662 28.5435 328.662C27.8273 328.662 27.1722 328.816 26.5781 329.125C25.9922 329.435 25.5365 329.866 25.2109 330.419H22.3545L23.27 320.385H34.061V322.961H25.7603L25.3086 328.112H25.3818C25.748 327.543 26.277 327.095 26.9688 326.77C27.6605 326.436 28.4377 326.269 29.3003 326.269C30.9849 326.269 32.3724 326.826 33.4629 327.941C34.5534 329.048 35.0986 330.46 35.0986 332.177C35.0986 334.008 34.4842 335.498 33.2554 336.645C32.0347 337.784 30.4478 338.354 28.4946 338.354ZM43.2407 321.313C43.9487 322.119 44.3027 323.209 44.3027 324.584C44.3027 325.96 43.9487 327.054 43.2407 327.868C42.5327 328.682 41.5846 329.089 40.3965 329.089C39.2083 329.089 38.2603 328.682 37.5522 327.868C36.8524 327.054 36.5024 325.96 36.5024 324.584C36.5024 323.209 36.8524 322.119 37.5522 321.313C38.2603 320.499 39.2083 320.092 40.3965 320.092C41.5846 320.092 42.5327 320.499 43.2407 321.313ZM40.3965 327.172C40.8522 327.172 41.2062 326.944 41.4585 326.489C41.7189 326.025 41.8491 325.39 41.8491 324.584C41.8491 323.771 41.7189 323.136 41.4585 322.68C41.2062 322.216 40.8522 321.984 40.3965 321.984C39.9489 321.984 39.5949 322.216 39.3345 322.68C39.0822 323.136 38.9561 323.771 38.9561 324.584C38.9561 325.39 39.0822 326.025 39.3345 326.489C39.5949 326.944 39.9489 327.172 40.3965 327.172ZM40.6406 338H37.9795L44.8032 328.662L50.8579 320.385H53.4946L46.854 329.479L40.6406 338ZM53.9219 330.444C54.6299 331.258 54.9839 332.352 54.9839 333.728C54.9839 335.103 54.6299 336.197 53.9219 337.011C53.2139 337.817 52.2658 338.22 51.0776 338.22C49.8895 338.22 48.9414 337.817 48.2334 337.011C47.5335 336.197 47.1836 335.103 47.1836 333.728C47.1836 332.352 47.5335 331.258 48.2334 330.444C48.9414 329.63 49.8895 329.223 51.0776 329.223C52.2658 329.223 53.2139 329.63 53.9219 330.444ZM50.0156 335.62C50.276 336.083 50.63 336.315 51.0776 336.315C51.5252 336.315 51.8792 336.083 52.1396 335.62C52.4001 335.156 52.5303 334.521 52.5303 333.715C52.5303 332.91 52.4001 332.275 52.1396 331.811C51.8792 331.347 51.5252 331.115 51.0776 331.115C50.63 331.115 50.276 331.347 50.0156 331.811C49.7633 332.275 49.6372 332.91 49.6372 333.715C49.6372 334.521 49.7633 335.156 50.0156 335.62Z" fill="black"/>
<path opacity="0.3" d="M150.75 59V44.3882H150.676L146.123 47.5864V44.6201L150.725 41.3853H153.838V59H150.75ZM164.495 59.354C162.68 59.354 161.174 58.8617 159.978 57.877C158.782 56.8841 158.151 55.6064 158.086 54.0439H161.04C161.138 54.8577 161.508 55.521 162.151 56.0337C162.802 56.5464 163.591 56.8027 164.519 56.8027C165.569 56.8027 166.419 56.4731 167.07 55.814C167.729 55.1548 168.059 54.3044 168.059 53.2627C168.059 52.2048 167.729 51.3421 167.07 50.6748C166.419 49.9993 165.577 49.6616 164.543 49.6616C163.827 49.6616 163.172 49.8162 162.578 50.1255C161.992 50.4347 161.536 50.866 161.211 51.4194H158.354L159.27 41.3853H170.061V43.9609H161.76L161.309 49.1123H161.382C161.748 48.5426 162.277 48.0951 162.969 47.7695C163.66 47.4359 164.438 47.269 165.3 47.269C166.985 47.269 168.372 47.8265 169.463 48.9414C170.553 50.0482 171.099 51.4601 171.099 53.1772C171.099 55.0083 170.484 56.4976 169.255 57.645C168.035 58.7843 166.448 59.354 164.495 59.354ZM179.241 42.313C179.949 43.1187 180.303 44.2091 180.303 45.5845C180.303 46.9598 179.949 48.0544 179.241 48.8682C178.533 49.682 177.585 50.0889 176.396 50.0889C175.208 50.0889 174.26 49.682 173.552 48.8682C172.852 48.0544 172.502 46.9598 172.502 45.5845C172.502 44.2091 172.852 43.1187 173.552 42.313C174.26 41.4992 175.208 41.0923 176.396 41.0923C177.585 41.0923 178.533 41.4992 179.241 42.313ZM176.396 48.1724C176.852 48.1724 177.206 47.9445 177.458 47.4888C177.719 47.0249 177.849 46.3901 177.849 45.5845C177.849 44.7707 177.719 44.1359 177.458 43.6802C177.206 43.2163 176.852 42.9844 176.396 42.9844C175.949 42.9844 175.595 43.2163 175.334 43.6802C175.082 44.1359 174.956 44.7707 174.956 45.5845C174.956 46.3901 175.082 47.0249 175.334 47.4888C175.595 47.9445 175.949 48.1724 176.396 48.1724ZM176.641 59H173.979L180.803 49.6616L186.858 41.3853H189.495L182.854 50.4795L176.641 59ZM189.922 51.4438C190.63 52.2576 190.984 53.3522 190.984 54.7275C190.984 56.1029 190.63 57.1974 189.922 58.0112C189.214 58.8169 188.266 59.2197 187.078 59.2197C185.889 59.2197 184.941 58.8169 184.233 58.0112C183.534 57.1974 183.184 56.1029 183.184 54.7275C183.184 53.3522 183.534 52.2576 184.233 51.4438C184.941 50.63 185.889 50.2231 187.078 50.2231C188.266 50.2231 189.214 50.63 189.922 51.4438ZM186.016 56.6196C186.276 57.0835 186.63 57.3154 187.078 57.3154C187.525 57.3154 187.879 57.0835 188.14 56.6196C188.4 56.1558 188.53 55.521 188.53 54.7153C188.53 53.9097 188.4 53.2749 188.14 52.811C187.879 52.3472 187.525 52.1152 187.078 52.1152C186.63 52.1152 186.276 52.3472 186.016 52.811C185.763 53.2749 185.637 53.9097 185.637 54.7153C185.637 55.521 185.763 56.1558 186.016 56.6196Z" fill="black"/>
<circle cx="278" cy="278" r="229" fill="#101D3F"/>
</svg>
